<svg xmlns="http://www.w3.org/2000/svg" xmlns:xlink="http://www.w3.org/1999/xlink" viewBox="0 0 348.58 350.67"><defs><style>.cls-1{fill:none;}.cls-2{isolation:isolate;}.cls-3{clip-path:url(#clip-path);}.cls-4{fill:#f1f1f1;}.cls-5{fill:#fff;}.cls-6{fill:#e4e4e4;}.cls-7{fill:#d6d6d6;}.cls-8{fill:#c9c9c9;}.cls-9{fill:#a2a2a2;}.cls-10{clip-path:url(#clip-path-2);}.cls-11{fill:#bbb;}.cls-12{fill:#aeaeae;}.cls-13{fill:#a0a0a0;}.cls-14{fill:#f4f4f4;}.cls-15{clip-path:url(#clip-path-3);}.cls-16{fill:#cfcfcf;}.cls-17{clip-path:url(#clip-path-4);}.cls-18{fill:#858585;}.cls-19{fill:#939393;}.cls-20{clip-path:url(#clip-path-5);}.cls-21{fill:#bebebe;}.cls-22{clip-path:url(#clip-path-6);}.cls-23{fill:#979797;}.cls-24{clip-path:url(#clip-path-7);}.cls-25{clip-path:url(#clip-path-8);}.cls-26{fill:#d9d9d9;}.cls-27{clip-path:url(#clip-path-9);}</style><clipPath id="clip-path" transform="translate(0 0)"><path class="cls-1" d="M196.65,0a2,2,0,0,1,.43,0,3,3,0,0,1,.49.1,4.84,4.84,0,0,1,.49.18,4.41,4.41,0,0,1,.43.25l-53.75,157a1.8,1.8,0,0,0-.35-.24,1.65,1.65,0,0,0-.42-.16,1.59,1.59,0,0,0-.43-.06,1.23,1.23,0,0,0-.39.06Z"/></clipPath><clipPath id="clip-path-2" transform="translate(0 0)"><path class="cls-1" d="M263.68,270.18a.45.45,0,0,0,.07-.25.7.7,0,0,0,0-.28,1,1,0,0,0-.14-.29,1.28,1.28,0,0,0-.24-.29L348,111.27a2.41,2.41,0,0,1,.33.28,2.12,2.12,0,0,1,.2.28.73.73,0,0,1,.09.26.3.3,0,0,1,0,.21Q306.12,191.25,263.68,270.18Z"/></clipPath><clipPath id="clip-path-3" transform="translate(0 0)"><path class="cls-1" d="M348.54,112.3q-42.42,78.95-84.86,157.88a.25.25,0,0,1,0,.07l-.05.06-.06.05-.08.05,84.87-157.92.07,0,.07,0,.05,0Z"/></clipPath><clipPath id="clip-path-4" transform="translate(0 0)"><path class="cls-1" d="M35.36,26.48a.33.33,0,0,1,.07-.16.47.47,0,0,1,.14-.14.9.9,0,0,1,.22-.1,1.58,1.58,0,0,1,.28-.08L.65,206.75a1.92,1.92,0,0,0-.25.12,1.33,1.33,0,0,0-.19.14l-.13.18a.62.62,0,0,0-.07.19Q17.68,116.93,35.36,26.48Z"/></clipPath><clipPath id="clip-path-5" transform="translate(0 0)"><path class="cls-1" d="M0,207.38q17.67-90.45,35.35-180.9a.66.66,0,0,0,0,.14.88.88,0,0,0,0,.15.89.89,0,0,0,.09.16c0,.05.09.1.15.15L.22,208a.83.83,0,0,1-.12-.16,1.11,1.11,0,0,1-.07-.16.51.51,0,0,1,0-.17A.86.86,0,0,1,0,207.38Z"/></clipPath><clipPath id="clip-path-6" transform="translate(0 0)"><polygon class="cls-1" points="348.32 112.49 263.45 270.41 124.63 350.48 197.02 171.94 348.32 112.49"/></clipPath><clipPath id="clip-path-7" transform="translate(0 0)"><polygon class="cls-1" points="194.37 171.27 122.47 350.02 0.22 208.03 35.64 27.08 194.37 171.27"/></clipPath><clipPath id="clip-path-8" transform="translate(0 0)"><path class="cls-1" d="M197,171.94,124.63,350.48a1.5,1.5,0,0,1-.54.18,1.89,1.89,0,0,1-.58,0,2,2,0,0,1-.57-.22,1.75,1.75,0,0,1-.47-.39l71.9-178.75a2.74,2.74,0,0,0,.62.43,3.46,3.46,0,0,0,.7.26,2.52,2.52,0,0,0,.71.09A1.59,1.59,0,0,0,197,171.94Z"/></clipPath><clipPath id="clip-path-9" transform="translate(0 0)"><path class="cls-1" d="M196.65,0a2,2,0,0,1,.43,0,3,3,0,0,1,.49.1,4.84,4.84,0,0,1,.49.18,4.41,4.41,0,0,1,.43.25L348,111.27a2.08,2.08,0,0,1,.4.37,1,1,0,0,1,.2.35.43.43,0,0,1,0,.3.46.46,0,0,1-.23.2L197,171.94a1.59,1.59,0,0,1-.62.11,2.52,2.52,0,0,1-.71-.09,3.46,3.46,0,0,1-.7-.26,2.74,2.74,0,0,1-.62-.43L35.64,27.08a1.09,1.09,0,0,1-.26-.35.44.44,0,0,1,0-.32.55.55,0,0,1,.23-.25,1.54,1.54,0,0,1,.46-.16Z"/></clipPath></defs><g id="Layer_2" data-name="Layer 2"><g id="Layer_1-2" data-name="Layer 1"><g class="cls-2"><g class="cls-2"><g class="cls-3"><g class="cls-2"><polyline class="cls-4" points="196.65 0.02 143.15 157.17 143.16 157.17 143.16 157.17 143.16 157.17 143.16 157.17 196.66 0.01 196.66 0.01 196.65 0.02 196.65 0.02 196.65 0.02"/><path class="cls-5" d="M196.66,0,143.17,157.17a.76.76,0,0,1,.27,0h.3l.3.07a2.09,2.09,0,0,1,.3.11L198,.27a2.09,2.09,0,0,0-.35-.13L197.3,0,197,0h-.3" transform="translate(0 0)"/><path class="cls-4" d="M198,.27l-53.66,157,0,0,0,0h0l0,0L198.15.34l0,0,0,0,0,0h0" transform="translate(0 0)"/><path class="cls-6" d="M198.15.34l-53.69,157,0,0h0l0,0,0,0,53.7-157,0,0,0,0h0l0,0" transform="translate(0 0)"/><path class="cls-7" d="M198.28.41l-53.7,157,0,0,0,0,0,0,0,0L198.41.49l0,0,0,0,0,0,0,0" transform="translate(0 0)"/><path class="cls-8" d="M198.41.49l-53.73,157,0,0h0L198.49.54h-.06l0,0" transform="translate(0 0)"/></g></g></g><polygon class="cls-9" points="198.49 0.55 347.96 111.27 263.33 269.07 144.74 157.57 198.49 0.55"/><g class="cls-2"><g class="cls-10"><g class="cls-2"><path class="cls-8" d="M348,111.27l-84.63,157.8v0h0v0h0L348,111.33h0l0,0,0,0h0" transform="translate(0 0)"/><path class="cls-11" d="M348,111.33l-84.65,157.8,0,.05,0,0,0,0,0,0,84.7-157.8-.05-.05,0,0,0,0-.06,0" transform="translate(0 0)"/><path class="cls-12" d="M348.24,111.51l-84.7,157.8.08.12.06.12,0,.12,0,.12L348.55,112a.54.54,0,0,0-.05-.11l-.06-.11-.09-.12-.11-.11" transform="translate(0 0)"/><path class="cls-13" d="M348.55,112l-84.8,157.83V270l0,.09a.36.36,0,0,1,0,.09L348.54,112.3a.09.09,0,0,0,0-.07.25.25,0,0,0,0-.08v-.09l0-.1" transform="translate(0 0)"/></g></g></g><path class="cls-14" d="M143.15,157.17a1.23,1.23,0,0,1,.39-.06,1.59,1.59,0,0,1,.43.06,1.65,1.65,0,0,1,.42.16,1.8,1.8,0,0,1,.35.24l118.59,111.5a1.47,1.47,0,0,1,.3.38,1,1,0,0,1,.12.38.61.61,0,0,1-.06.33.58.58,0,0,1-.24.25L124.63,350.48a1.5,1.5,0,0,1-.54.18,1.89,1.89,0,0,1-.58,0,2,2,0,0,1-.57-.22,1.75,1.75,0,0,1-.47-.39L.22,208a.8.8,0,0,1-.2-.37.63.63,0,0,1,0-.36A.77.77,0,0,1,.25,207a1.28,1.28,0,0,1,.4-.23Z" transform="translate(0 0)"/><g class="cls-2"><g class="cls-15"><g class="cls-2"><polyline class="cls-11" points="348.54 112.31 263.69 270.18 263.68 270.19 263.68 270.19 263.68 270.19 263.68 270.2 348.54 112.32 348.54 112.32 348.54 112.31 348.54 112.31 348.54 112.31"/><path class="cls-8" d="M348.54,112.32,263.67,270.2h0v0h0L348.5,112.37h0v0h0" transform="translate(0 0)"/><path class="cls-7" d="M348.5,112.37,263.63,270.26v0h0v0l84.87-157.9h0v0h0" transform="translate(0 0)"/><path class="cls-6" d="M348.45,112.42l-84.87,157.9h0v0h0l84.87-157.91h.06" transform="translate(0 0)"/><path class="cls-4" d="M348.39,112.46,263.52,270.37h-.07l84.87-157.92h.07" transform="translate(0 0)"/></g></g></g><polygon class="cls-16" points="36.07 26 196.65 0.02 143.15 157.17 0.65 206.75 36.07 26"/><g class="cls-2"><g class="cls-17"><g class="cls-2"><path class="cls-18" d="M35.36,26.48,0,207.38H0v0H0L35.37,26.44h0" transform="translate(0 0)"/><path class="cls-19" d="M35.37,26.44,0,207.33l0,0v-.07l0,0L35.43,26.32l0,0,0,0v.06" transform="translate(0 0)"/><path class="cls-13" d="M35.43,26.32.08,207.19l0,0v0l0,0,0,0L35.5,26.24l0,0,0,0,0,0v0" transform="translate(0 0)"/><path class="cls-12" d="M35.5,26.24.15,207.09v0l0,0,0,0v0L35.57,26.18l0,0h0l0,0h0" transform="translate(0 0)"/><path class="cls-11" d="M35.57,26.18.21,207h0l0,0,0,0h0L35.65,26.13l0,0h-.06" transform="translate(0 0)"/><path class="cls-8" d="M35.65,26.13.29,207l0,0h0l0,0h0L35.74,26.09h-.09" transform="translate(0 0)"/><path class="cls-7" d="M35.74,26.09.37,206.89h0l0,0h0L35.84,26.06h-.1" transform="translate(0 0)"/><path class="cls-6" d="M35.84,26.06.45,206.84h0l0,0H.55L36,26h-.12" transform="translate(0 0)"/><path class="cls-4" d="M36,26,.55,206.79h.1L36.07,26H36" transform="translate(0 0)"/></g></g></g><g class="cls-2"><g class="cls-20"><g class="cls-2"><path class="cls-8" d="M35.64,27.08.22,208h0v0h0v0L35.58,27v0h0l0,0h0" transform="translate(0 0)"/><path class="cls-11" d="M35.58,27,.17,208l0,0,0-.05,0,0,0,0L35.45,26.86s0,0,0,0l0,0,0,0,0,0" transform="translate(0 0)"/><path class="cls-12" d="M35.45,26.86.06,207.8l0-.11a.36.36,0,0,1,0-.1.41.41,0,0,1,0-.11s0-.07,0-.1L35.36,26.48a.41.41,0,0,0,0,.18l0,.1.06.1" transform="translate(0 0)"/></g></g></g><polygon class="cls-21" points="348.32 112.49 263.45 270.41 124.63 350.48 197.02 171.94 348.32 112.49"/><g class="cls-2"><g class="cls-22"><polyline class="cls-5" points="184.3 298.98 267.2 225.52 281.74 197.2 238.23 180.55 216.71 216.3 252.3 222.57 189.92 275.94 184.3 298.98"/></g></g><polygon class="cls-23" points="194.37 171.27 122.47 350.02 0.22 208.03 35.64 27.08 194.37 171.27"/><g class="cls-2"><g class="cls-24"><polyline class="cls-5" points="126.82 159.61 44.58 134.73 38.21 162.7 91.19 269.7 105.49 251.65 64.22 172.74 123.9 196.51 126.82 159.61"/></g></g><g class="cls-2"><g class="cls-25"><g class="cls-2"><polyline class="cls-4" points="197.02 171.94 124.63 350.48 124.62 350.49 124.62 350.49 124.61 350.49 124.61 350.49 197 171.95 197 171.95 197.01 171.95 197.01 171.94 197.02 171.94"/><path class="cls-5" d="M197,172,124.61,350.49a1.24,1.24,0,0,1-.38.14,1.75,1.75,0,0,1-.4,0,2,2,0,0,1-.42-.07,2,2,0,0,1-.41-.15l72.06-178.72a3.59,3.59,0,0,0,.51.2,3.1,3.1,0,0,0,.51.11,2,2,0,0,0,.49,0A1.5,1.5,0,0,0,197,172" transform="translate(0 0)"/><path class="cls-4" d="M195.06,171.73,123,350.45l0,0,0,0,0,0,0,0,72-178.73.05,0,.06,0,0,0,.05,0" transform="translate(0 0)"/><path class="cls-6" d="M194.85,171.62l-72,178.73,0,0,0,0,0,0,0,0,72-178.73.05,0,0,0,.05,0,0,0" transform="translate(0 0)"/><path class="cls-7" d="M194.66,171.5l-72,178.73,0,0,0,0,0,0,0,0,71.92-178.74.05,0,0,0,.05,0,0,0" transform="translate(0 0)"/><path class="cls-8" d="M194.47,171.36,122.55,350.1l0,0,0,0,0,0,0,0,71.9-178.75,0,0,0,0,0,0,0,0" transform="translate(0 0)"/></g><path class="cls-5" d="M194.37,171.27a4.33,4.33,0,0,0,1.32.69c.93.09,1.14.06,1.33,0L124.63,350.48a2.24,2.24,0,0,1-1.12.15c-.74-.32-.91-.45-1-.61l71.9-178.75" transform="translate(0 0)"/></g></g><path class="cls-26" d="M196.65,0a2,2,0,0,1,.43,0,3,3,0,0,1,.49.1,4.84,4.84,0,0,1,.49.18,4.41,4.41,0,0,1,.43.25L348,111.27a2.08,2.08,0,0,1,.4.37,1,1,0,0,1,.2.35.43.43,0,0,1,0,.3.46.46,0,0,1-.23.2L197,171.94a1.59,1.59,0,0,1-.62.11,2.52,2.52,0,0,1-.71-.09,3.46,3.46,0,0,1-.7-.26,2.74,2.74,0,0,1-.62-.43L35.64,27.08a1.09,1.09,0,0,1-.26-.35.44.44,0,0,1,0-.32.55.55,0,0,1,.23-.25,1.54,1.54,0,0,1,.46-.16Z" transform="translate(0 0)"/><g class="cls-2"><g class="cls-27"><path class="cls-5" d="M177.65,64.55l1.72-2.31c.57-.76,1.14-1.5,1.7-2.23l1.66-2.15,1.63-2.06,1.58-2L187.41,52l1.39-1.77,1.3-1.67L191.31,47c.4-.5.77-1,1.14-1.45l1.06-1.35c.34-.44.67-.85,1-1.25l.89-1.13.77-1,.65-.87c.19-.27.37-.52.53-.76l.83,1.08c.3.39.62.81,1,1.27L200.22,43c.38.51.79,1.06,1.21,1.64l1.35,1.81,1.45,2,1.57,2.11c.54.73,1.1,1.49,1.69,2.27l1.77,2.42c.61.82,1.23,1.67,1.85,2.54L213,60.4c.66.92,1.32,1.86,2,2.82s1.37,2,2.06,3,1.41,2,2.12,3l2.19,3.15,2.24,3.25-46-11.06m33.92-38-30.95-7.83q-1.71,1.38-3.41,2.79t-3.41,2.91q-1.71,1.5-3.41,3T167,30.58c-1.14,1.08-2.29,2.18-3.46,3.32s-2.35,2.3-3.55,3.49l-3.66,3.69Q154.45,43,152.55,45t-3.9,4.12q-2,2.13-4,4.38c-1.38,1.51-2.78,3.07-4.19,4.66s-2.88,3.26-4.36,5-3,3.48-4.56,5.3-3.19,3.75-4.85,5.72-3.38,4-5.14,6.17-3.59,4.36-5.46,6.64l42,9.68,1.42-2.27c.48-.76,1-1.52,1.46-2.28s1-1.52,1.51-2.28,1-1.51,1.54-2.27l1.55-2.26L167,83l1.51-2.2c.5-.73,1-1.46,1.49-2.18l64.9,15.32c.67,1,1.34,2,2,3l2,3c.69,1,1.37,2,2.06,3s1.39,2,2.09,3l2.08,3.06,2,3c.68,1,1.34,2,2,3s1.32,2,2,3l40.26,9.28q-3.44-4.68-6.71-9.11l-6.34-8.54-6-8q-2.9-3.85-5.66-7.5c-1.83-2.41-3.62-4.77-5.4-7.08s-3.49-4.54-5.2-6.74-3.36-4.32-5-6.42-3.25-4.12-4.84-6.11-3.13-3.93-4.68-5.85l-4.56-5.61c-1.5-1.83-3-3.62-4.45-5.39s-2.9-3.48-4.33-5.17-2.84-3.36-4.26-5-2.8-3.27-4.2-4.89-2.77-3.19-4.16-4.77-2.74-3.11-4.11-4.65" transform="translate(0 0)"/></g></g></g></g></g></svg>